<?xml version="1.0" standalone="no"?>
<!DOCTYPE svg PUBLIC "-//W3C//DTD SVG 20010904//EN"
 "http://www.w3.org/TR/2001/REC-SVG-20010904/DTD/svg10.dtd">
<svg version="1.0" xmlns="http://www.w3.org/2000/svg"
 width="700.000000pt" height="700.000000pt" viewBox="0 0 700.000000 700.000000"
 preserveAspectRatio="xMidYMid meet">
<metadata>
Created by potrace 1.14, written by Peter Selinger 2001-2017
</metadata>
<g transform="translate(0.000000,700.000000) scale(0.100000,-0.100000)"
fill="#000000" stroke="none">
<path d="M3359 6995 c-2 -1 -42 -6 -89 -9 -47 -3 -96 -8 -110 -11 -14 -2 -45
-6 -70 -9 -25 -3 -58 -8 -75 -11 -16 -3 -46 -8 -65 -11 -70 -12 -86 -16 -180
-39 -141 -34 -243 -63 -307 -86 -452 -162 -796 -356 -1128 -635 -500 -419
-869 -961 -1082 -1589 -36 -105 -107 -372 -117 -440 -10 -61 -16 -97 -21 -125
-42 -225 -51 -668 -19 -915 2 -22 7 -58 10 -80 4 -34 16 -111 29 -180 2 -11
13 -63 25 -115 12 -52 23 -103 25 -113 2 -10 9 -32 14 -50 6 -18 20 -63 31
-102 12 -38 25 -79 29 -90 5 -11 23 -60 41 -110 42 -116 79 -199 162 -362 414
-815 1133 -1436 2003 -1732 222 -75 486 -133 745 -162 177 -21 703 -17 821 6
9 2 40 6 70 10 30 3 77 10 104 15 28 5 66 12 85 15 19 3 42 8 50 10 8 2 27 6
42 9 200 34 560 157 772 264 334 168 569 336 820 588 119 118 171 178 263 299
29 39 57 75 63 82 46 56 180 282 253 428 96 193 210 494 242 644 2 9 13 52 24
96 26 103 63 312 77 430 41 362 37 737 -12 1075 -4 25 -7 52 -8 60 -1 9 -5 20
-8 25 -4 7 -579 9 -1640 9 -898 -1 -1638 -2 -1643 -3 -7 -1 -10 -221 -10 -656
l0 -655 942 0 943 0 -5 -28 c-2 -16 -16 -69 -30 -118 -112 -391 -374 -726
-740 -947 -74 -45 -124 -70 -247 -126 -47 -21 -243 -87 -282 -95 -12 -3 -64
-14 -116 -25 -290 -60 -606 -60 -890 1 -432 92 -864 356 -1145 698 -20 25 -45
55 -56 68 -49 58 -149 218 -210 337 -124 244 -202 500 -227 745 -13 132 -4
512 13 540 2 3 6 26 10 50 22 151 109 410 197 585 128 255 351 533 563 701 28
21 52 42 55 45 11 12 159 108 237 153 84 49 228 114 323 148 75 26 264 75 325
83 28 4 59 9 70 11 93 17 347 22 475 9 407 -41 774 -198 1076 -461 l61 -53
491 492 c270 271 494 495 498 499 6 7 -46 57 -156 148 -23 19 -47 40 -53 45
-34 30 -264 190 -342 238 -262 158 -497 260 -850 367 -43 13 -303 68 -350 75
-23 3 -50 7 -60 9 -11 2 -51 7 -90 11 -38 4 -83 9 -100 11 -40 6 -542 14 -546
9z"/>
</g>
</svg>
